<svg width="140" height="74" viewBox="0 0 140 74" fill="none" xmlns="http://www.w3.org/2000/svg">
<path d="M12.046 27.5107C1.58772 27.5107 0 29.6357 0 37.3555C0 45.3579 3.08166 46.4912 12.5125 46.4912C22.8458 46.4912 24.0913 43.8712 24.0913 36.6464C24.0913 28.9743 21.3206 27.5107 12.046 27.5107ZM18.489 37.0014C18.489 42.0527 18.0218 42.6193 12.575 42.6193C6.19455 42.6193 5.60306 42.4785 5.60306 37.0014C5.60306 31.9493 6.0695 31.3826 11.5163 31.3826C17.9288 31.3826 18.489 31.5243 18.489 37.0014Z" fill="white"/>
<path d="M51.4181 33.767C51.3877 29.3054 50.2985 27.5107 40.7434 27.5107C35.7006 27.5107 30.5031 27.7941 30.5031 33.1534C30.5031 35.9389 31.9658 37.8983 35.9186 38.2047L44.758 38.8661C46.6567 39.0077 46.9059 39.9516 46.9059 40.6599C46.9059 42.5254 45.3182 42.6663 41.1786 42.6663C35.949 42.6663 35.9491 42.0996 35.9186 39.8099H30.4102C30.4406 45.0984 32.215 46.4912 41.6146 46.4912C47.9951 46.4912 52.3527 45.7351 52.3527 40.5891C52.3527 39.4566 52.3527 35.7025 45.7542 35.2536L38.2533 34.7348C36.3859 34.617 35.7944 34.1442 35.7944 33.2003C35.7944 31.2409 37.8173 31.2409 41.0849 31.2409C45.6292 31.2409 45.9409 31.8545 45.9409 33.767H51.4181Z" fill="white"/>
<path d="M64.8329 36.5286V27.7002H59.262V46.3026H64.8329V36.8589L74.8553 46.3026H82.014L71.2447 36.6942L81.578 27.7002H74.5443L64.8329 36.5286Z" fill="white"/>
<path d="M102.836 27.7002H95.5531L86.2161 46.3026H92.5027L94.3397 42.4307H104.082L105.918 46.3026H112.205L102.836 27.7002ZM102.556 38.7714H95.8337L99.195 31.8076L102.556 38.7714Z" fill="white"/>
<path d="M117.932 27.7002V46.3026H123.503V39.5744H130.786C132.312 39.5744 133.868 39.5975 133.868 41.6994V43.4454C133.868 44.3193 133.962 45.4518 134.241 46.3026H140C139.812 45.7351 139.409 44.6026 139.409 42.6902V41.0141C139.409 39.2202 138.506 38.0392 136.296 37.6381C139.688 36.7411 139.781 34.2867 139.781 32.8701C139.781 28.243 135.922 27.7002 133.059 27.7002H117.932ZM131.627 31.5712C133.214 31.5712 134.273 31.9493 134.273 33.4837C134.273 35.3962 133.308 35.8203 131.596 35.8203H123.503V31.5712H131.627Z" fill="white"/>
<path d="M69.9887 18.4877C67.2946 18.4877 65.1105 16.3011 65.1105 13.6037C65.1105 10.9064 67.2946 8.71973 69.9887 8.71973C72.6829 8.71973 74.8669 10.9064 74.8669 13.6037C74.8669 16.3011 72.6829 18.4877 69.9887 18.4877Z" fill="url(#paint0_linear_88_5748)"/>
<path fill-rule="evenodd" clip-rule="evenodd" d="M65.4594 50.912C61.9116 62.16 53.7074 70.966 44.2466 74.0001C49.8639 68.968 54.7421 60.68 57.1073 50.912H65.4594ZM56.2943 23.014C53.7074 14.578 49.2726 7.47397 44.2466 2.95996C52.8204 5.69796 60.3595 13.246 64.3507 23.014H56.2943Z" fill="url(#paint1_linear_88_5748)"/>
<path fill-rule="evenodd" clip-rule="evenodd" d="M83.0866 50.912C85.4518 60.606 90.2561 68.8941 95.7995 74.0001C86.3387 70.966 78.1345 62.16 74.5867 50.912H83.0866ZM75.6954 23.014C79.6866 13.246 87.1518 5.69796 95.7995 2.95996C90.8474 7.47397 86.4126 14.578 83.8996 23.014H75.6954Z" fill="url(#paint2_linear_88_5748)"/>
<path fill-rule="evenodd" clip-rule="evenodd" d="M59.874 66.8955C63.1261 67.8575 66.5261 68.3755 70 68.3755C73.4739 68.3755 76.8738 67.8575 80.126 66.8955C81.5303 68.0795 83.0825 69.1155 84.6346 70.0775C80.0521 71.9275 75.0999 72.9635 70 72.9635C64.9 72.9635 59.9479 71.9275 55.3653 70.0775C56.9175 69.1155 58.4697 68.0795 59.874 66.8955ZM103.926 52.6875C101.043 58.0895 96.978 62.6035 92.0998 66.0075C91.5085 64.5275 90.9911 63.0475 90.4737 61.4935C93.7258 59.1255 96.4606 56.0915 98.678 52.6875H103.926ZM41.322 52.6875C43.5394 56.0915 46.2741 59.1255 49.5263 61.4935C49.0089 63.0475 48.4915 64.5275 47.9002 66.0075C43.022 62.6035 38.9568 58.0895 36.0742 52.6875H41.322Z" fill="url(#paint3_linear_88_5748)"/>
<path fill-rule="evenodd" clip-rule="evenodd" d="M35.5569 21.238C38.2177 15.91 42.0612 11.396 46.6437 7.91801C47.3089 9.32401 47.9002 10.73 48.4176 12.284C45.3872 14.8 42.8003 17.834 40.7307 21.238H35.5569ZM99.2693 21.238C97.1998 17.834 94.6128 14.8 91.5824 12.284C92.0998 10.73 92.6911 9.32401 93.3563 7.91801C97.9389 11.396 101.782 15.91 104.443 21.238H99.2693ZM51.3002 4.88401C56.9176 1.702 63.3479 0 70 0C76.6521 0 83.0825 1.702 88.6999 4.88401C86.9999 5.55001 85.2999 6.43801 83.6738 7.47401C79.4608 5.55001 74.8043 4.58801 70 4.58801C65.1957 4.58801 60.5393 5.55001 56.3263 7.47401C54.7002 6.43801 53.0002 5.55001 51.3002 4.88401Z" fill="#48B0E4"/>
<defs>
<linearGradient id="paint0_linear_88_5748" x1="70.0005" y1="-0.000518082" x2="70.0005" y2="73.9996" gradientUnits="userSpaceOnUse">
<stop stop-color="#47B0E4"/>
<stop offset="0.57" stop-color="#48A9DF"/>
<stop offset="0.79" stop-color="#4A99D3"/>
<stop offset="1" stop-color="#4B8AC9"/>
</linearGradient>
<linearGradient id="paint1_linear_88_5748" x1="70" y1="-4.29153e-05" x2="70" y2="74.0001" gradientUnits="userSpaceOnUse">
<stop stop-color="#47B0E4"/>
<stop offset="0.57" stop-color="#48A9DF"/>
<stop offset="0.79" stop-color="#4A99D3"/>
<stop offset="1" stop-color="#4B8AC9"/>
</linearGradient>
<linearGradient id="paint2_linear_88_5748" x1="70" y1="-4.29153e-05" x2="70" y2="74.0001" gradientUnits="userSpaceOnUse">
<stop stop-color="#47B0E4"/>
<stop offset="0.57" stop-color="#48A9DF"/>
<stop offset="0.79" stop-color="#4A99D3"/>
<stop offset="1" stop-color="#4B8AC9"/>
</linearGradient>
<linearGradient id="paint3_linear_88_5748" x1="70" y1="-0.000569996" x2="70" y2="73.9995" gradientUnits="userSpaceOnUse">
<stop stop-color="#47B0E4"/>
<stop offset="0.57" stop-color="#48A9DF"/>
<stop offset="0.79" stop-color="#4A99D3"/>
<stop offset="1" stop-color="#4B8AC9"/>
</linearGradient>
</defs>
</svg>
