<svg width="141" height="74" viewBox="0 0 141 74" fill="none" xmlns="http://www.w3.org/2000/svg">
<path d="M12.546 27.5105C2.08772 27.5105 0.5 29.6355 0.5 37.3553C0.5 45.3576 3.58166 46.491 13.0125 46.491C23.3458 46.491 24.5913 43.871 24.5913 36.6462C24.5913 28.9741 21.8206 27.5105 12.546 27.5105ZM18.989 37.0011C18.989 42.0524 18.5218 42.6191 13.075 42.6191C6.69455 42.6191 6.10306 42.4782 6.10306 37.0011C6.10306 31.949 6.5695 31.3824 12.0163 31.3824C18.4288 31.3824 18.989 31.524 18.989 37.0011Z" fill="#364255"/>
<path d="M51.918 33.7668C51.8876 29.3052 50.7984 27.5105 41.2433 27.5105C36.2005 27.5105 31.003 27.7938 31.003 33.1532C31.003 35.9387 32.4657 37.8981 36.4185 38.2045L45.2579 38.8658C47.1565 39.0075 47.4058 39.9514 47.4058 40.6597C47.4058 42.5252 45.8181 42.666 41.6785 42.666C36.4489 42.666 36.4489 42.0994 36.4185 39.8097H30.91C30.9405 45.0982 32.7149 46.491 42.1145 46.491C48.495 46.491 52.8525 45.7349 52.8525 40.5888C52.8525 39.4564 52.8525 35.7023 46.2541 35.2534L38.7532 34.7345C36.8858 34.6167 36.2943 34.144 36.2943 33.2001C36.2943 31.2407 38.3172 31.2407 41.5847 31.2407C46.129 31.2407 46.4408 31.8543 46.4408 33.7668H51.918Z" fill="#364255"/>
<path d="M65.3329 36.5286V27.7002H59.762V46.3026H65.3329V36.8589L75.3553 46.3026H82.514L71.7447 36.6942L82.078 27.7002H75.0443L65.3329 36.5286Z" fill="#364255"/>
<path d="M103.336 27.7002H96.0531L86.7161 46.3026H93.0027L94.8397 42.4307H104.582L106.418 46.3026H112.705L103.336 27.7002ZM103.056 38.7714H96.3337L99.695 31.8076L103.056 38.7714Z" fill="#364255"/>
<path d="M118.432 27.7002V46.3026H124.003V39.5744H131.286C132.812 39.5744 134.368 39.5975 134.368 41.6994V43.4454C134.368 44.3193 134.462 45.4518 134.741 46.3026H140.5C140.312 45.7351 139.909 44.6026 139.909 42.6902V41.0141C139.909 39.2202 139.006 38.0392 136.796 37.6381C140.188 36.7411 140.281 34.2867 140.281 32.8701C140.281 28.243 136.422 27.7002 133.559 27.7002H118.432ZM132.127 31.5712C133.714 31.5712 134.773 31.9493 134.773 33.4837C134.773 35.3962 133.808 35.8203 132.096 35.8203H124.003V31.5712H132.127Z" fill="#364255"/>
<path d="M70.4887 18.4877C67.7945 18.4877 65.6105 16.3011 65.6105 13.6037C65.6105 10.9064 67.7945 8.71973 70.4887 8.71973C73.1828 8.71973 75.3669 10.9064 75.3669 13.6037C75.3669 16.3011 73.1828 18.4877 70.4887 18.4877Z" fill="url(#paint0_linear_179_973)"/>
<path fill-rule="evenodd" clip-rule="evenodd" d="M65.9595 50.9119C62.4118 62.1599 54.2075 70.9659 44.7467 73.9999C50.364 68.9679 55.2423 60.6799 57.6075 50.9119H65.9595ZM56.7944 23.0139C54.2075 14.5779 49.7727 7.47385 44.7467 2.95984C53.3205 5.69784 60.8596 13.2459 64.8509 23.0139H56.7944Z" fill="url(#paint1_linear_179_973)"/>
<path fill-rule="evenodd" clip-rule="evenodd" d="M83.5867 50.9119C85.9518 60.6059 90.7561 68.8939 96.2996 73.9999C86.8388 70.9659 78.6345 62.1599 75.0867 50.9119H83.5867ZM76.1954 23.0139C80.1867 13.2459 87.6518 5.69784 96.2996 2.95984C91.3474 7.47385 86.9127 14.5779 84.3997 23.0139H76.1954Z" fill="url(#paint2_linear_179_973)"/>
<path fill-rule="evenodd" clip-rule="evenodd" d="M60.3741 66.8956C63.6262 67.8576 67.0262 68.3756 70.5 68.3756C73.9739 68.3756 77.3739 67.8576 80.626 66.8956C82.0304 68.0796 83.5825 69.1156 85.1347 70.0776C80.5521 71.9276 75.6 72.9636 70.5 72.9636C65.4001 72.9636 60.448 71.9276 55.8654 70.0776C57.4176 69.1156 58.9697 68.0796 60.3741 66.8956ZM104.426 52.6876C101.543 58.0896 97.478 62.6036 92.5998 66.0076C92.0085 64.5276 91.4911 63.0476 90.9738 61.4936C94.2259 59.1256 96.9607 56.0916 99.178 52.6876H104.426ZM41.8221 52.6876C44.0394 56.0916 46.7742 59.1256 50.0263 61.4936C49.5089 63.0476 48.9916 64.5276 48.4003 66.0076C43.522 62.6036 39.4569 58.0896 36.5743 52.6876H41.8221Z" fill="url(#paint3_linear_179_973)"/>
<path fill-rule="evenodd" clip-rule="evenodd" d="M36.0569 21.238C38.7177 15.91 42.5612 11.396 47.1437 7.91801C47.8089 9.32401 48.4002 10.73 48.9176 12.284C45.8872 14.8 43.3003 17.834 41.2307 21.238H36.0569ZM99.7693 21.238C97.6998 17.834 95.1128 14.8 92.0824 12.284C92.5998 10.73 93.1911 9.32401 93.8563 7.91801C98.4389 11.396 102.282 15.91 104.943 21.238H99.7693ZM51.8002 4.88401C57.4176 1.702 63.8479 0 70.5 0C77.1521 0 83.5825 1.702 89.1999 4.88401C87.4999 5.55001 85.7999 6.43801 84.1738 7.47401C79.9608 5.55001 75.3043 4.58801 70.5 4.58801C65.6957 4.58801 61.0393 5.55001 56.8263 7.47401C55.2002 6.43801 53.5002 5.55001 51.8002 4.88401Z" fill="#48B0E4"/>
<defs>
<linearGradient id="paint0_linear_179_973" x1="70.5004" y1="-0.000518082" x2="70.5004" y2="73.9996" gradientUnits="userSpaceOnUse">
<stop stop-color="#47B0E4"/>
<stop offset="0.57" stop-color="#48A9DF"/>
<stop offset="0.79" stop-color="#4A99D3"/>
<stop offset="1" stop-color="#4B8AC9"/>
</linearGradient>
<linearGradient id="paint1_linear_179_973" x1="70.5001" y1="-0.000164986" x2="70.5001" y2="73.9999" gradientUnits="userSpaceOnUse">
<stop stop-color="#47B0E4"/>
<stop offset="0.57" stop-color="#48A9DF"/>
<stop offset="0.79" stop-color="#4A99D3"/>
<stop offset="1" stop-color="#4B8AC9"/>
</linearGradient>
<linearGradient id="paint2_linear_179_973" x1="70.5001" y1="-0.000164986" x2="70.5001" y2="73.9999" gradientUnits="userSpaceOnUse">
<stop stop-color="#47B0E4"/>
<stop offset="0.57" stop-color="#48A9DF"/>
<stop offset="0.79" stop-color="#4A99D3"/>
<stop offset="1" stop-color="#4B8AC9"/>
</linearGradient>
<linearGradient id="paint3_linear_179_973" x1="70.5" y1="-0.000447926" x2="70.5" y2="73.9996" gradientUnits="userSpaceOnUse">
<stop stop-color="#47B0E4"/>
<stop offset="0.57" stop-color="#48A9DF"/>
<stop offset="0.79" stop-color="#4A99D3"/>
<stop offset="1" stop-color="#4B8AC9"/>
</linearGradient>
</defs>
</svg>
